<svg id="_780c6f38-12e9-4526-8343-95ef18389740" data-name="780c6f38-12e9-4526-8343-95ef18389740" xmlns="http://www.w3.org/2000/svg" viewBox="0 0 397.33 397.33"><defs><style>.cls-1{fill:#9ba8d9;}.cls-2{fill:#e9d3db;}.cls-3{fill:#8d5d6d;}.cls-4{fill:#b18699;}.cls-5{fill:none;}.cls-6{fill:#fff;}</style></defs><title>plan ahead</title><circle class="cls-1" cx="198.66" cy="198.66" r="198.66"/><path class="cls-2" d="M389.1,341.23l23.5,95a26.61,26.61,0,0,0,32.23,19.44L569.22,425Z" transform="translate(-287.06 -132.34)"/><path class="cls-3" d="M590.48,392.28,553.4,242.35a26.6,26.6,0,0,0-32.22-19.44l-50,12.36V379.39l98,45.56,1.82-.45A26.62,26.62,0,0,0,590.48,392.28Z" transform="translate(-287.06 -132.34)"/><path class="cls-4" d="M395,254.12a26.62,26.62,0,0,0-19.45,32.22l13.58,54.89,82.09,38.16V235.27Z" transform="translate(-287.06 -132.34)"/><path class="cls-5" d="M524,327.27l-.92-.49v0Z" transform="translate(-287.06 -132.34)"/><path class="cls-5" d="M519.08,325.05c1.33.55,2.66,1.14,4,1.77v0A32.24,32.24,0,0,0,519.08,325.05Z" transform="translate(-287.06 -132.34)"/><path d="M496.73,340.66c0,.32.08.64.11,1,0-.27,0-.48,0-.57S496.75,340.79,496.73,340.66Z" transform="translate(-287.06 -132.34)"/><path d="M495.54,327.69a5.32,5.32,0,0,0-.16,1.27c0-.1,0-.21,0-.31A8.85,8.85,0,0,1,495.54,327.69Z" transform="translate(-287.06 -132.34)"/><path class="cls-2" d="M502.82,343.17c-.08,0-5.89.25-5.73.34l0,0q1.53,12.81,3,25.62a5.23,5.23,0,0,1,0,.79l.68.33.19-.11,12-23.58A35.66,35.66,0,0,0,502.82,343.17Z" transform="translate(-287.06 -132.34)"/><path class="cls-4" d="M520.22,351.39a35.69,35.69,0,0,0-7.23-4.87L501,370.1c3.08-1.88,6.15-3.78,9.25-5.63l15.61-9.26-.6.34C524.82,355.77,520.51,351.64,520.22,351.39Z" transform="translate(-287.06 -132.34)"/><path class="cls-4" d="M582.25,211,523.07,326.78l.92.49c7.29,3.6,14,8.28,17.36,13l0,.07q27.36-54.8,54.67-109.61c.19-.39.42-.77.64-1.16l-3.63-10.62A45.22,45.22,0,0,0,582.25,211Z" transform="translate(-287.06 -132.34)"/><path class="cls-2" d="M502,320.77c4.73.12,10.9,1.75,17.05,4.28a32.24,32.24,0,0,1,4,1.73L582.25,211c-.92-.5-1.86-1-2.81-1.4-6.61-3-13.43-4.82-20.78-3.72L555.37,207a16.47,16.47,0,0,1-.61,1.57q-28.18,56.56-56.39,113.1l.35-.6C498.82,320.85,499.14,320.31,502,320.77Z" transform="translate(-287.06 -132.34)"/><path class="cls-6" d="M513,346.52a35.69,35.69,0,0,1,7.23,4.87,1.62,1.62,0,0,0,1.48,0c2.74-1.57,5.35-3.37,8.15-4.81a11,11,0,0,0,5.47-5.83,3.08,3.08,0,0,0-.24-3.41,34.3,34.3,0,0,0-11.09-10l-.93-.45Z" transform="translate(-287.06 -132.34)"/><path class="cls-6" d="M519.08,325.05a38.73,38.73,0,0,0-12.21-2.14c-2.35-.06-4,.65-4.72,3.07-.3,1.06-1.27,2.08-1.19,3,.38,4.69,1,9.35,1.55,14,.16.09.23.16.31.17A35.66,35.66,0,0,1,513,346.52l10.07-19.7C521.74,326.19,520.41,325.6,519.08,325.05Z" transform="translate(-287.06 -132.34)"/><path class="cls-6" d="M497.06,343.47c-.07-.61-.14-1.23-.22-1.84A10.91,10.91,0,0,0,497.06,343.47Z" transform="translate(-287.06 -132.34)"/><path class="cls-6" d="M536.46,348.87l-10.65,6.34c4.84-2.66,11.21-4.78,13.87-9.9.48-.91,2.3-3.93,1.71-5-1.13,2.28-2.27,4.55-3.4,6.82A4.37,4.37,0,0,1,536.46,348.87Z" transform="translate(-287.06 -132.34)"/><path class="cls-6" d="M498.37,321.62c-1.25,2.09-2.4,3.72-2.83,6.07a6.68,6.68,0,0,1,.53-1.47Z" transform="translate(-287.06 -132.34)"/><path class="cls-6" d="M495.38,329a40.41,40.41,0,0,0,.89,9.11c.16.86.32,1.72.46,2.59q-.64-5.39-1.3-10.76A7.5,7.5,0,0,1,495.38,329Z" transform="translate(-287.06 -132.34)"/><path class="cls-6" d="M524,327.27a34.3,34.3,0,0,1,11.09,10,3.08,3.08,0,0,1,.24,3.41,11,11,0,0,1-5.47,5.83c-2.8,1.44-5.41,3.24-8.15,4.81a1.62,1.62,0,0,1-1.48,0c.29.25,4.6,4.38,5,4.16l.6-.34,10.65-6.34a4.37,4.37,0,0,0,1.53-1.74c1.13-2.27,2.27-4.54,3.4-6.82l0-.07C538,335.55,531.28,330.87,524,327.27Z" transform="translate(-287.06 -132.34)"/><path class="cls-6" d="M502.82,343.17c-.08,0-.15-.08-.31-.17-.54-4.62-1.17-9.28-1.55-14-.08-1,.89-2,1.19-3,.71-2.42,2.37-3.13,4.72-3.07a38.73,38.73,0,0,1,12.21,2.14c-6.15-2.53-12.32-4.16-17.05-4.28-2.89-.46-3.21.08-3.31.25l-.35.6-2.3,4.6a6.68,6.68,0,0,0-.53,1.47,8.85,8.85,0,0,0-.14,1c0,.1,0,.21,0,.31a7.5,7.5,0,0,0,.05.94q.66,5.39,1.3,10.76c0,.13,0,.27.07.4s0,.3,0,.57c.08.61.15,1.23.22,1.84l0,0C496.93,343.42,502.74,343.16,502.82,343.17Z" transform="translate(-287.06 -132.34)"/></svg>